<?xml version="1.0" encoding="UTF-8"?>
<svg width="249px" height="52px" viewBox="0 0 249 52" version="1.1" xmlns="http://www.w3.org/2000/svg" xmlns:xlink="http://www.w3.org/1999/xlink">
    <title>Artboard</title>
    <g id="Artboard" stroke="none" stroke-width="1" fill="none" fill-rule="evenodd">
        <g id="new_jesry_transit_logo" transform="translate(0.000000, 0.494459)" fill="#3A5E98" fill-rule="nonzero">
            <path d="M38.32,1.09554111 C38.32,1.09554111 38.32,25.4255411 38.32,30.9955411 C38.32,37.3855411 34.43,40.6555411 29.4,40.6555411 C27.03,40.6555411 24.87,39.3455411 22.57,36.5755411 C20.27,33.8055411 8.91,18.7455411 8.91,18.7455411 L8.91,49.4355411 L0,49.4355411 L0,7.00554111 C0.0809874025,4.12835223 2.43168774,1.835202 5.31,1.82554111 C7.67,1.82554111 10.04,3.82554111 11.37,5.90554111 L29.37,30.8455411 L29.37,1.09554111 L38.32,1.09554111 Z" id="Path"></path>
            <path d="M49.28,1.09554111 L49.28,33.8155411 C49.28,44.8155411 40.43,50.4355411 30.66,50.4355411 C23.66,50.4355411 20.66,48.7355411 16.99,45.1355411 C14.784701,42.8132499 12.9042594,40.2028337 11.4,37.3755411 L11.4,26.7855411 C11.4,26.7855411 18.08,36.4455411 22.33,40.5855411 C25.74,43.9355411 28.74,43.3955411 31.12,43.3155411 C35.68,43.1655411 41.12,40.1655411 41.12,31.9255411 L41.12,1.09554111 L49.28,1.09554111 Z" id="Path"></path>
            <polygon id="Path" points="84.3 0.99554111 84.3 6.46554111 74.79 6.46554111 74.79 31.8455411 68.2 31.8455411 68.2 6.46554111 58.7 6.46554111 58.7 0.99554111"></polygon>
            <path d="M108.43,1.79554111 C109.589592,2.26301226 110.618871,3.00409327 111.43,3.95554111 C112.096326,4.73109645 112.633218,5.60903399 113.02,6.55554111 C113.426793,7.59001395 113.627226,8.69409252 113.61,9.80554111 C113.597527,11.3201555 113.209249,12.8079838 112.48,14.1355411 C111.67727,15.5852184 110.33808,16.6623152 108.75,17.1355411 C110.031307,17.5721799 111.122719,18.4375392 111.84,19.5855411 C112.535354,21.0926219 112.844651,22.7490817 112.74,24.4055411 L112.74,26.4755411 C112.709824,27.4287349 112.766726,28.3826935 112.91,29.3255411 C113.036593,30.0581654 113.474253,30.7000675 114.11,31.0855411 L114.11,31.8555411 L106.86,31.8555411 C106.65,31.1755411 106.51,30.6255411 106.42,30.2055411 C106.240208,29.3334934 106.146425,28.4459069 106.14,27.5555411 L106.14,24.6955411 C106.14,22.7455411 105.76,21.4355411 105.14,20.7855411 C104.52,20.1355411 103.21,19.7855411 101.37,19.7855411 L94.74,19.7855411 L94.74,31.8555411 L88.31,31.8555411 L88.31,1.00554111 L103.44,1.00554111 C105.141438,0.966081181 106.835813,1.23718119 108.44,1.80554111 M94.74,6.29554111 L94.74,14.6655411 L101.88,14.6655411 C102.964425,14.7278238 104.049438,14.5538123 105.06,14.1555411 C106.32,13.5655411 106.94,12.3955411 106.94,10.6455411 C106.94,8.89554111 106.33,7.49554111 105.13,6.84554111 C104.164401,6.4225333 103.112396,6.23406333 102.06,6.29554111 L94.74,6.29554111 Z" id="Shape"></path>
            <path d="M128.96,1.00554111 L136.46,1.00554111 L147.62,31.8655411 L140.45,31.8655411 L138.37,25.5055411 L126.74,25.5055411 L124.59,31.8655411 L117.66,31.8655411 L128.96,1.00554111 Z M128.54,20.2055411 L136.62,20.2055411 L132.62,8.06554111 L128.54,20.2055411 Z" id="Shape"></path>
            <polygon id="Path" points="151.67 0.99554111 158.57 0.99554111 171.14 22.4555411 171.14 0.99554111 177.27 0.99554111 177.27 31.8455411 170.7 31.8455411 157.8 9.95554111 157.8 31.8455411 151.67 31.8455411"></polygon>
            <path d="M188.24,22.3155411 C188.338047,23.4600423 188.753644,24.5544486 189.44,25.4755411 C190.54,26.7555411 192.44,27.3855411 195.07,27.3855411 C196.375159,27.4270392 197.67849,27.2582138 198.93,26.8855411 C200.599385,26.5064962 201.773007,25.0070991 201.74,23.2955411 C201.752406,22.3061209 201.212541,21.3922077 200.34,20.9255411 C198.953233,20.2290915 197.470197,19.7437342 195.94,19.4855411 L192.53,18.7455411 C189.18,18.0155411 186.87,17.2355411 185.6,16.3755411 C183.446667,14.9555411 182.373333,12.7255411 182.38,9.68554111 C182.327778,7.03373018 183.478468,4.50074115 185.51,2.79554111 C187.61,1.00554111 190.67,0.00554111026 194.74,0.00554111026 C197.82013,-0.0800593035 200.846011,0.828055722 203.37,2.59554111 C205.762457,4.34282618 207.15712,7.14334011 207.11,10.1055411 L200.74,10.1055411 C200.738085,8.39038484 199.744094,6.83118353 198.19,6.10554111 C196.960455,5.54831912 195.619197,5.28143616 194.27,5.32554111 C192.812775,5.25111819 191.364982,5.59831055 190.1,6.32554111 C189.106926,6.90807976 188.50927,7.98462735 188.54,9.13554111 C188.507657,10.1914309 189.110224,11.1642023 190.07,11.6055411 C191.410899,12.2336845 192.820395,12.7035164 194.27,13.0055411 L199.81,14.2855411 C201.774365,14.642519 203.641543,15.4091519 205.29,16.5355411 C207.204385,18.048288 208.260639,20.3996644 208.12,22.8355411 C208.149536,25.5621791 206.911975,28.1481265 204.77,29.8355411 C202.53,31.7088744 199.37,32.6422078 195.29,32.6355766 C191.21,32.6288744 187.933333,31.7088744 185.46,29.8755411 C183.096946,28.0968696 181.758628,25.2707002 181.88,22.3155411 L188.24,22.3155411 Z" id="Path"></path>
            <rect id="Rectangle" x="212.26" y="0.99554111" width="6.58" height="30.86"></rect>
            <polygon id="Path" points="248.01 0.99554111 248.01 6.46554111 238.51 6.46554111 238.51 31.8455411 231.92 31.8455411 231.92 6.46554111 222.42 6.46554111 222.42 0.99554111"></polygon>
        </g>
    </g>
</svg>