<svg width="70" height="20" viewBox="0 0 70 20" fill="none" xmlns="http://www.w3.org/2000/svg">
<g id="Style=Black">
<g id="Group 56 Copy">
<path id="Fill 1" fill-rule="evenodd" clip-rule="evenodd" d="M29.7421 19.4916C26.5238 19.4916 24.1704 17.3469 24.1704 14.1298C24.1704 11.0139 26.2421 8.66675 29.4806 8.66675C31.6329 8.66675 34.0265 9.67833 34.4891 12.5516L31.8742 13.4013C31.6931 12.1268 30.607 11.4389 29.5007 11.4389C28.3139 11.4389 27.1272 12.248 27.1272 13.9274C27.1272 15.5664 27.972 16.6589 29.7219 16.6589C30.607 16.6589 31.6931 16.1936 32.0955 15.5664L34.5293 16.6589C33.6443 18.5407 31.7535 19.4916 29.7421 19.4916Z" fill="#071538"/>
<path id="Fill 3" fill-rule="evenodd" clip-rule="evenodd" d="M42.4605 8.74757C44.653 8.74757 46.0811 10.2852 46.0811 12.6528V19.0869H43.1444V13.1786C43.1444 12.0861 42.36 11.5399 41.4548 11.5399C40.3284 11.5399 39.0209 12.3694 38.7193 14.0082V19.0869H35.8228V5.63159H38.7394L38.7193 10.4269C39.6847 9.29383 41.1129 8.74757 42.4605 8.74757Z" fill="#071538"/>
<path id="Fill 5" fill-rule="evenodd" clip-rule="evenodd" d="M50.1146 12.8147H54.9421C54.6604 11.8435 53.9163 11.2972 52.4479 11.2972C51.4019 11.2972 50.5169 11.9042 50.1146 12.8147ZM55.1834 15.6675L57.2351 16.9624C56.3701 18.8036 54.2582 19.4916 52.5082 19.4916C49.2898 19.4916 47.1377 17.3469 47.1377 14.1298C47.1377 10.7913 49.2496 8.66675 52.4479 8.66675C55.3645 8.66675 57.6978 10.6902 57.6978 13.543C57.6978 14.3118 57.4363 14.8987 57.4363 14.8987H50.0341C50.3761 16.0519 51.3215 16.8614 52.4881 16.8614C53.0916 16.8614 54.58 16.8412 55.1834 15.6675Z" fill="#071538"/>
<path id="Fill 7" fill-rule="evenodd" clip-rule="evenodd" d="M65.4434 8.74756C67.6359 8.74756 69.0641 10.2852 69.0641 12.6528V19.0869H66.1273V13.0775C66.1273 12.0052 65.3831 11.4791 64.498 11.4791C63.3717 11.4791 62.024 12.3289 61.7022 14.0082V19.0869H58.8057V8.97015H61.5211L61.7223 10.4269C62.6878 9.27366 64.0958 8.74756 65.4434 8.74756Z" fill="#071538"/>
<path id="Fill 9" fill-rule="evenodd" clip-rule="evenodd" d="M14.1708 11.3557C13.6706 11.3557 13.185 11.2934 12.7202 11.178V19.0869H15.6168V11.1791C15.1534 11.2937 14.6694 11.3557 14.1708 11.3557Z" fill="#071538"/>
<path id="Fill 11" fill-rule="evenodd" clip-rule="evenodd" d="M23.7894 11.8231V9.32888H21.1649V5.63159H20.1953C20.0699 7.87202 18.7369 9.7869 16.8403 10.7296V11.8231H18.2483V14.8784C18.2483 17.8121 19.3546 19.2083 21.6879 19.2083C22.1505 19.2083 22.9954 19.1678 23.4378 19.0868V16.234C23.2165 16.2744 22.573 16.315 22.2512 16.315C21.4064 16.315 21.1449 15.9507 21.1449 14.7569V11.8231H23.7894Z" fill="#071538"/>
<path id="Fill 13" fill-rule="evenodd" clip-rule="evenodd" d="M15.2748 4.54311C15.2604 4.52254 15.2436 4.50495 15.2249 4.48922C15.2063 4.47394 15.185 4.46064 15.1623 4.45066C15.1393 4.43989 15.114 4.43201 15.0868 4.42685C15.0595 4.42158 15.0301 4.41919 14.9986 4.41895C14.9667 4.41919 14.9369 4.42144 14.9081 4.42685C14.8798 4.43201 14.8526 4.44008 14.827 4.45026C14.8014 4.46084 14.7767 4.47406 14.753 4.48952C14.7292 4.50506 14.7065 4.52327 14.684 4.54385C14.6427 4.58104 14.6081 4.62447 14.5781 4.67319C14.5481 4.72213 14.5228 4.77608 14.5013 4.83545C14.4795 4.89413 14.4611 4.95841 14.4445 5.02604C14.4283 5.09366 14.4135 5.16522 14.3993 5.24082C14.3846 5.31518 14.3713 5.38734 14.3616 5.45579C14.3516 5.52382 14.3454 5.58903 14.3437 5.64912C14.342 5.70921 14.3454 5.76447 14.3555 5.81459C14.3657 5.8639 14.3826 5.90795 14.4075 5.9456C14.4226 5.96597 14.439 5.98446 14.458 6.0002C14.4765 6.01613 14.4972 6.02925 14.5198 6.0399C14.543 6.05043 14.5681 6.05803 14.5954 6.0633C14.6228 6.06846 14.6529 6.07097 14.6852 6.07043C14.7168 6.0696 14.7477 6.06654 14.7765 6.06085C14.8058 6.05509 14.8335 6.04614 14.8603 6.03549C14.8868 6.02416 14.9124 6.01024 14.9367 5.99372C14.961 5.9776 14.9845 5.95886 15.0068 5.93767C15.0477 5.89942 15.0821 5.85508 15.1114 5.80546C15.1413 5.75515 15.1658 5.69979 15.1873 5.63992C15.1989 5.60764 15.2094 5.57371 15.2192 5.53868C15.2276 5.50919 15.2356 5.47887 15.2429 5.44788C15.2592 5.38018 15.2739 5.3087 15.2878 5.2345C15.2947 5.19965 15.3006 5.16566 15.3063 5.13209C15.313 5.09428 15.3189 5.05715 15.3239 5.02127C15.3331 4.95382 15.3391 4.89083 15.3401 4.83239C15.3416 4.77389 15.3379 4.71984 15.3273 4.67176C15.317 4.62336 15.3002 4.5803 15.2748 4.54311Z" fill="#E6003D"/>
<path id="Fill 15" fill-rule="evenodd" clip-rule="evenodd" d="M12.9219 4.54311C12.9074 4.52254 12.8905 4.50495 12.8719 4.48922C12.8534 4.47394 12.832 4.46084 12.8091 4.45066C12.7861 4.44008 12.761 4.43211 12.7337 4.42665C12.7066 4.4217 12.6771 4.41925 12.6455 4.41895C12.6138 4.41919 12.5837 4.42144 12.555 4.42685C12.5269 4.43201 12.4996 4.43977 12.474 4.45026C12.4482 4.46102 12.4238 4.47412 12.4001 4.48964C12.3765 4.5052 12.3536 4.52341 12.3309 4.54371C12.2898 4.58104 12.2549 4.62447 12.2249 4.67319C12.195 4.72213 12.1696 4.77596 12.1484 4.83545C12.1264 4.89401 12.1081 4.95828 12.0915 5.02616C12.0752 5.09366 12.0604 5.1654 12.0462 5.24082C12.0316 5.3153 12.0184 5.38747 12.0084 5.45567C11.9987 5.52409 11.9923 5.58903 11.9908 5.64924C11.9888 5.70921 11.9923 5.76447 12.0023 5.81445C12.0128 5.8639 12.0294 5.90807 12.0546 5.9456C12.0695 5.96597 12.0862 5.98446 12.1049 6.0002C12.1231 6.01613 12.1442 6.02925 12.1669 6.0399C12.19 6.05043 12.2152 6.05815 12.2424 6.0633C12.2699 6.06858 12.2998 6.07097 12.332 6.07053C12.3637 6.06993 12.3944 6.06636 12.4236 6.06105C12.4526 6.05515 12.4805 6.04626 12.5073 6.03549C12.5339 6.02416 12.5593 6.01024 12.5836 5.99384C12.6079 5.9776 12.6315 5.95886 12.6538 5.93759C12.6945 5.89956 12.7289 5.85532 12.7584 5.80546C12.7879 5.75515 12.8128 5.69991 12.8342 5.64006C12.8461 5.60722 12.8566 5.57273 12.8666 5.53733C12.8749 5.50815 12.8828 5.47863 12.89 5.44788C12.906 5.38018 12.9209 5.3087 12.935 5.23462C12.9415 5.19989 12.9476 5.16614 12.9532 5.13306C12.9599 5.09464 12.9658 5.05758 12.9707 5.02127C12.9802 4.95394 12.9861 4.89077 12.9871 4.83239C12.9886 4.77389 12.9848 4.71984 12.9741 4.67176C12.9642 4.62336 12.9469 4.58038 12.9219 4.54311Z" fill="#E6003D"/>
<path id="Fill 17" fill-rule="evenodd" clip-rule="evenodd" d="M17.6082 4.53775C17.5937 4.51698 17.5767 4.49909 17.5578 4.48329C17.5391 4.46783 17.5176 4.45449 17.4946 4.44425C17.4714 4.43346 17.4458 4.42551 17.4183 4.4203C17.3907 4.41497 17.3611 4.41257 17.3292 4.41235C17.2971 4.41245 17.2669 4.41487 17.2378 4.4203C17.2092 4.42551 17.182 4.4336 17.1561 4.44403C17.1302 4.45467 17.1053 4.46796 17.0811 4.48359C17.0573 4.49927 17.0342 4.51772 17.0116 4.53853C16.9699 4.5759 16.9349 4.61991 16.9045 4.66903C16.8742 4.71852 16.8488 4.77315 16.8269 4.83302C16.8049 4.89231 16.7865 4.95727 16.7697 5.02557C16.7534 5.09369 16.7383 5.16617 16.7238 5.24232C16.7092 5.3174 16.6958 5.39049 16.686 5.45966C16.6759 5.5285 16.6696 5.59419 16.6679 5.6549C16.6662 5.71561 16.6697 5.77136 16.6799 5.82177C16.6903 5.87163 16.7071 5.91625 16.7324 5.9541C16.7475 5.97499 16.7642 5.99354 16.7834 6.00942C16.8021 6.0256 16.8228 6.03876 16.8457 6.04923C16.8692 6.06013 16.8945 6.06786 16.9221 6.07313C16.9499 6.07841 16.9801 6.08072 17.0126 6.08036C17.0448 6.07961 17.0759 6.07655 17.105 6.07044C17.1345 6.06492 17.1625 6.05585 17.1896 6.0449C17.2163 6.03355 17.2422 6.01972 17.2669 6.00292C17.2912 5.9865 17.3151 5.96758 17.3376 5.94631C17.3789 5.90766 17.4135 5.86276 17.4433 5.81277C17.4731 5.76204 17.498 5.70605 17.5198 5.64558C17.5316 5.613 17.5423 5.57857 17.5523 5.54321C17.5646 5.50383 17.576 5.46334 17.5857 5.42044C17.5999 5.36017 17.6121 5.29672 17.6239 5.23079C17.6297 5.19716 17.6353 5.16456 17.6401 5.13261C17.6468 5.09443 17.6527 5.05694 17.6577 5.02066C17.6671 4.95266 17.6731 4.88915 17.6741 4.8299C17.6756 4.77084 17.6718 4.71612 17.6612 4.66768C17.6509 4.61872 17.6339 4.5753 17.6082 4.53775Z" fill="#E6003D"/>
<g id="Group 21">
<mask id="mask0" mask-type="alpha" maskUnits="userSpaceOnUse" x="8" y="0" width="12" height="11">
<path id="Clip 20" fill-rule="evenodd" clip-rule="evenodd" d="M8.82959 0.0200195H19.4337V10.6866H8.82959V0.0200195Z" fill="white"/>
</mask>
<g mask="url(#mask0)">
<path id="Fill 19" fill-rule="evenodd" clip-rule="evenodd" d="M15.9496 4.91806C15.9425 5.01198 15.9282 5.11417 15.9089 5.22731C15.8899 5.34151 15.8688 5.44527 15.8442 5.54017C15.8191 5.63506 15.7903 5.72169 15.7555 5.8014C15.7207 5.88107 15.6799 5.954 15.6314 6.02216C15.5827 6.09068 15.5259 6.15467 15.4593 6.21521C15.413 6.2571 15.361 6.29773 15.303 6.33601C15.2451 6.37362 15.181 6.40878 15.111 6.4385C15.0406 6.46838 14.9647 6.49265 14.8828 6.51117C14.8005 6.52841 14.7123 6.53916 14.6185 6.54013C14.5243 6.5419 14.4394 6.53363 14.3632 6.51789C14.2866 6.50245 14.2185 6.47949 14.1584 6.45118C14.0984 6.4228 14.0458 6.3893 14.0008 6.35201C13.9557 6.31474 13.9177 6.27443 13.8857 6.2331C13.8392 6.1725 13.8045 6.10921 13.7789 6.04025C13.7537 5.97159 13.7387 5.89787 13.7316 5.81738C13.725 5.73632 13.7263 5.64856 13.7353 5.55219C13.7439 5.45513 13.7595 5.35008 13.7804 5.23363C13.8019 5.11826 13.8254 5.01383 13.8523 4.91885C13.8794 4.8233 13.91 4.73697 13.9466 4.65746C13.9835 4.57819 14.0257 4.50595 14.0761 4.43857C14.1267 4.37162 14.1842 4.30926 14.2522 4.25003C14.2986 4.20958 14.3506 4.17008 14.4087 4.13406C14.4668 4.09772 14.5303 4.06532 14.5993 4.03724C14.6686 4.00994 14.7437 3.98695 14.8243 3.97182C14.9051 3.95608 14.9913 3.94781 15.0833 3.94886C15.1745 3.9494 15.2574 3.95904 15.3317 3.97581C15.4063 3.99211 15.4725 4.01601 15.5313 4.04413C15.59 4.07224 15.6411 4.10611 15.6853 4.14263C15.7292 4.1789 15.7662 4.21798 15.7965 4.25871C15.842 4.31753 15.8766 4.37903 15.9017 4.44568C15.9271 4.51235 15.9425 4.5834 15.9499 4.66151C15.9576 4.73951 15.957 4.82457 15.9496 4.91806ZM13.5967 4.91821C13.5895 5.01198 13.5754 5.11417 13.5559 5.22749C13.5371 5.34151 13.516 5.44539 13.4911 5.54017C13.4665 5.63506 13.4376 5.72169 13.4025 5.80116C13.3681 5.88121 13.3272 5.9543 13.2787 6.0223C13.2297 6.09068 13.173 6.15479 13.1064 6.21521C13.0601 6.25729 13.0083 6.29773 12.9502 6.33613C12.8922 6.37362 12.8281 6.40878 12.758 6.43844C12.6879 6.46844 12.6118 6.49277 12.5299 6.51117C12.4478 6.52831 12.3593 6.53916 12.2656 6.54031C12.1716 6.5418 12.0866 6.53363 12.0103 6.51801C11.934 6.50258 11.8656 6.47961 11.8058 6.45088C11.7455 6.4228 11.6935 6.3893 11.6482 6.35225C11.603 6.315 11.5649 6.27455 11.5334 6.2331C11.4868 6.17256 11.4517 6.10905 11.4263 6.04025C11.4013 5.97159 11.386 5.89787 11.3792 5.81684C11.3725 5.73632 11.3739 5.64856 11.3827 5.55225C11.3914 5.45513 11.407 5.3502 11.4282 5.23375C11.4496 5.11826 11.4729 5.01383 11.4999 4.91893C11.527 4.82316 11.5577 4.73697 11.5941 4.65734C11.6309 4.57819 11.6733 4.50573 11.7234 4.43857C11.7737 4.3715 11.8316 4.30926 11.8992 4.25003C11.9457 4.20979 11.998 4.17032 12.0559 4.13406C12.1137 4.09772 12.1773 4.06532 12.2467 4.03732C12.3159 4.00994 12.391 3.98695 12.4716 3.9716C12.5522 3.95608 12.6385 3.94781 12.7305 3.94912C12.8218 3.9494 12.9045 3.95904 12.9787 3.97581C13.0534 3.99229 13.1197 4.01601 13.1786 4.04413C13.2373 4.07244 13.2884 4.10623 13.3324 4.14251C13.3764 4.1789 13.4132 4.21798 13.4437 4.25871C13.4891 4.31753 13.5237 4.37891 13.5489 4.44568C13.5738 4.51259 13.5897 4.58347 13.5971 4.66165C13.6049 4.73951 13.6041 4.82457 13.5967 4.91821ZM18.9976 3.2331C18.9678 3.23849 18.9395 3.24694 18.9127 3.25785C18.8856 3.26912 18.8597 3.2829 18.8346 3.29926C18.81 3.3156 18.7857 3.3349 18.7624 3.35651C18.719 3.39543 18.6827 3.44126 18.6511 3.49239C18.6199 3.54405 18.5934 3.60096 18.5708 3.6632C18.548 3.72488 18.5288 3.79246 18.5113 3.86353C18.4945 3.93459 18.4791 4.01006 18.4641 4.08932C18.455 4.1367 18.3785 4.58952 18.3172 4.95702C18.3169 4.95702 18.2337 5.43376 18.2337 5.43376C18.2337 5.43376 18.2318 5.44583 18.229 5.4637C18.2275 5.47254 18.2256 5.48167 18.224 5.49012C18.2177 5.52846 18.2132 5.56503 18.2097 5.60077C18.2078 5.61674 18.2063 5.63083 18.2058 5.64119C18.205 5.65528 18.2036 5.68345 18.2036 5.68345C18.2042 5.68561 18.2046 5.68762 18.2049 5.68959C18.2044 5.72678 18.2058 5.7623 18.2116 5.79476C18.2194 5.83692 18.2326 5.87495 18.2533 5.90743C18.2656 5.9252 18.2792 5.94112 18.2949 5.9548C18.3102 5.96869 18.3278 5.98026 18.3468 5.98976C18.3662 5.99936 18.3874 6.00624 18.4104 6.01127C18.4141 6.01206 18.4183 6.01218 18.4221 6.01296L18.2543 6.55379C18.237 6.55415 18.2198 6.5549 18.2021 6.55439C18.139 6.552 18.0809 6.54453 18.0276 6.53175C17.9749 6.51924 17.9264 6.50165 17.8821 6.47857C17.8738 6.4742 17.8663 6.46883 17.8583 6.46404C17.8271 6.44798 17.7974 6.43077 17.7705 6.41111C17.7295 6.38141 17.6936 6.34722 17.6641 6.31017C17.6166 6.2497 17.5837 6.17906 17.5618 6.10237C17.5347 6.15027 17.5021 6.19768 17.4629 6.24308C17.4456 6.26304 17.4277 6.28129 17.4094 6.2992L17.4075 6.30184C17.4037 6.30526 17.4002 6.30826 17.3966 6.31144C17.3876 6.31989 17.3786 6.32794 17.3694 6.33569C17.3691 6.33601 17.3689 6.33625 17.3684 6.33649C17.3588 6.34482 17.3491 6.35285 17.3394 6.3604C17.3108 6.38324 17.2823 6.40401 17.2537 6.42226C17.2025 6.45534 17.1506 6.48175 17.0971 6.50155C17.0437 6.52119 16.9883 6.53518 16.9302 6.54327C16.8716 6.55115 16.8105 6.55359 16.7445 6.5516C16.684 6.54926 16.6256 6.5418 16.5702 6.52904C16.5148 6.51606 16.4619 6.49865 16.414 6.47647C16.3654 6.45424 16.3215 6.42741 16.2825 6.39721C16.2438 6.36726 16.2099 6.33301 16.1825 6.29608C16.1328 6.22869 16.1006 6.15003 16.0821 6.06384C16.0634 5.97843 16.0579 5.88514 16.0606 5.78834C16.0639 5.69154 16.0759 5.59175 16.0916 5.49159C16.1079 5.39198 16.1281 5.29245 16.1481 5.19632C16.1679 5.10075 16.1887 5.00134 16.2134 4.90325C16.2381 4.80491 16.2667 4.70745 16.3023 4.61427C16.3376 4.52128 16.3799 4.4329 16.432 4.35287C16.4838 4.27306 16.5458 4.20119 16.6203 4.14213C16.6613 4.10886 16.7073 4.07946 16.756 4.05356C16.8052 4.02825 16.8573 4.00718 16.9119 3.9904C16.9663 3.97337 17.0233 3.96162 17.0813 3.95407C17.1393 3.94721 17.1982 3.94518 17.2577 3.9486C17.3189 3.95228 17.3766 3.95983 17.4292 3.97212C17.4821 3.98428 17.5312 4.00124 17.5761 4.02414C17.6208 4.0465 17.6616 4.07512 17.6989 4.10919C17.7318 4.14012 17.7616 4.17656 17.7888 4.21792C17.7938 4.18232 17.799 4.1463 17.8055 4.10919C17.8225 4.01619 17.8439 3.91823 17.8673 3.81757C17.8906 3.71532 17.9143 3.61835 17.9395 3.52708C17.9656 3.43574 17.9939 3.34911 18.0264 3.26998C18.0375 3.24277 18.0494 3.21661 18.0616 3.19088C18.065 3.18371 18.07 3.17286 18.0773 3.1586C18.0785 3.15638 18.0797 3.15407 18.0809 3.15186C18.0856 3.14292 18.0909 3.13318 18.0971 3.12239C18.1105 3.09837 18.1242 3.07484 18.1389 3.0525C18.1662 3.01157 18.1963 2.97402 18.2292 2.93935C18.3342 2.82245 18.4912 2.70227 18.7101 2.66244C17.791 1.08339 16.0879 0.021914 14.1374 0.0200224C11.2087 0.0170239 8.83245 2.4021 8.82959 5.34787C8.82861 6.20462 9.02891 7.01388 9.38489 7.73142C9.49048 7.68296 9.58111 7.60325 9.64456 7.49905L9.6479 7.49434C9.64968 7.4917 9.6515 7.48925 9.65315 7.48673C9.68403 7.43773 9.70936 7.38484 9.73069 7.325C9.75067 7.27048 9.7685 7.20812 9.78512 7.13462C9.78768 7.12235 10.1898 4.92046 10.2139 4.78857L9.86272 4.78913L10.0352 4.20218L10.3104 4.20119L10.3397 4.04847C10.343 4.02764 10.3461 4.00718 10.3498 3.98599L10.3584 3.93636C10.3748 3.84247 10.3934 3.73585 10.412 3.66044C10.4269 3.59766 10.4414 3.54618 10.4576 3.49835C10.4804 3.4263 10.5041 3.36285 10.5301 3.30457C10.5716 3.21305 10.618 3.13268 10.672 3.05874C10.7289 2.98131 10.7924 2.91166 10.8662 2.84597C10.9193 2.79856 10.9777 2.75439 11.0396 2.7147C11.105 2.67242 11.1763 2.63536 11.2514 2.60418C11.3329 2.57092 11.4172 2.5452 11.5019 2.52804C11.5949 2.50924 11.6909 2.4998 11.7875 2.4998L11.7998 2.49966C11.8952 2.49966 11.9855 2.5088 12.0683 2.52681C12.1013 2.53343 12.1316 2.54275 12.161 2.55162L12.1658 2.55309L11.9737 3.17359L11.9656 3.16902C11.9618 3.16681 11.9579 3.16459 11.9538 3.16264C11.9245 3.14886 11.8924 3.13821 11.8581 3.13091C11.8225 3.12336 11.7838 3.1194 11.7431 3.1194H11.7392C11.6968 3.1194 11.6553 3.12356 11.6153 3.13169C11.5801 3.13888 11.5455 3.14924 11.5098 3.16375L11.5051 3.1652C11.5032 3.1657 11.5012 3.1663 11.4993 3.16699C11.4727 3.17721 11.4471 3.18983 11.4208 3.20565C11.3958 3.2215 11.3714 3.23939 11.3486 3.25907C11.3071 3.29441 11.2714 3.33571 11.2395 3.38557C11.2092 3.43329 11.1845 3.48513 11.1636 3.54405C11.1439 3.5971 11.1265 3.65805 11.11 3.73064C11.1081 3.73911 11.0987 3.79282 11.0905 3.84007C11.0838 3.87883 11.0776 3.91431 11.0762 3.92159L11.0367 4.20174L11.457 4.20041L11.2837 4.78998L10.94 4.78788L10.6226 6.56285L10.5407 6.99382C10.5215 7.09603 10.5048 7.18117 10.4806 7.27036C10.4501 7.38265 10.4161 7.48035 10.3766 7.56912C10.3348 7.66163 10.2875 7.74379 10.2318 7.81986C10.1743 7.89849 10.1096 7.96946 10.0339 8.03692C9.97868 8.08606 9.91916 8.13102 9.85712 8.17084C9.80377 8.20527 9.74681 8.23582 9.6877 8.26291C10.6328 9.72054 12.2673 10.6847 14.1267 10.6866C17.0546 10.6895 19.4307 8.3045 19.4337 5.35878C19.4345 4.60319 19.2788 3.88448 18.9978 3.2331H18.9976Z" fill="#E6003D"/>
</g>
</g>
<path id="Fill 22" fill-rule="evenodd" clip-rule="evenodd" d="M15.2468 5.44786C15.2383 5.47885 15.229 5.50918 15.2192 5.53866C15.2337 5.4997 15.2468 5.45943 15.258 5.41687C15.2744 5.35745 15.2884 5.29472 15.302 5.2293C15.3087 5.19607 15.3152 5.16373 15.3207 5.13208C15.314 5.16565 15.3071 5.19964 15.2992 5.23449C15.2829 5.30869 15.2658 5.38017 15.2468 5.44786Z" fill="#E6003D"/>
<path id="Fill 24" fill-rule="evenodd" clip-rule="evenodd" d="M15.34 4.83226C15.3389 4.8907 15.333 4.95368 15.3238 5.02114C15.3187 5.05702 15.3129 5.09415 15.3062 5.13196C15.3015 5.16361 15.2959 5.19595 15.2902 5.22918C15.2785 5.2946 15.2665 5.35733 15.2524 5.41675C15.2427 5.45931 15.2315 5.49958 15.2191 5.53854C15.2092 5.57358 15.1988 5.60751 15.1872 5.63978C15.1656 5.69965 15.1411 5.75501 15.1113 5.80532C15.082 5.85495 15.0476 5.89928 15.0067 5.93754C14.9844 5.95873 14.9609 5.97746 14.9366 5.99358C14.9123 6.0101 14.8866 6.02403 14.8602 6.03536C14.8333 6.046 14.8057 6.05496 14.7764 6.06072C14.7475 6.06641 14.7166 6.06947 14.6851 6.07029C14.6528 6.07084 14.6227 6.06832 14.5952 6.06317C14.568 6.0579 14.5429 6.05029 14.5197 6.03977C14.497 6.02912 14.4764 6.016 14.4579 6.00006C14.4389 5.98433 14.4225 5.96583 14.4073 5.94547C14.3824 5.90781 14.3656 5.86376 14.3554 5.81446C14.3453 5.76433 14.3419 5.70907 14.3435 5.64898C14.3452 5.58889 14.3515 5.52369 14.3614 5.45565C14.3712 5.38721 14.3844 5.31505 14.3991 5.24069C14.4134 5.16508 14.4282 5.09352 14.4443 5.02591C14.461 4.95827 14.4794 4.894 14.5011 4.83531C14.5226 4.77595 14.548 4.722 14.578 4.67306C14.608 4.62434 14.6426 4.58091 14.6839 4.54372C14.7064 4.52313 14.7291 4.50492 14.7529 4.48939C14.7766 4.47393 14.8013 4.46071 14.8268 4.45012C14.8525 4.43994 14.8796 4.43187 14.9079 4.42672C14.9368 4.42131 14.9666 4.41905 14.9984 4.41881C15.03 4.41905 15.0593 4.42145 15.0867 4.42672C15.1139 4.43187 15.1391 4.43976 15.1622 4.45053C15.1849 4.46051 15.2062 4.47381 15.2248 4.48908C15.2434 4.50482 15.2603 4.52241 15.2747 4.54298C15.3001 4.58016 15.3169 4.62323 15.3271 4.67163C15.3377 4.7197 15.3414 4.77376 15.34 4.83226ZM15.9017 4.44564C15.8767 4.37899 15.842 4.31749 15.7966 4.25867C15.7663 4.21794 15.7293 4.17883 15.6854 4.14259C15.6412 4.10607 15.5901 4.07218 15.5314 4.04409C15.4726 4.01597 15.4064 3.99207 15.3318 3.97574C15.2575 3.95898 15.1746 3.94936 15.0834 3.94882C14.9914 3.94777 14.9052 3.95604 14.8244 3.97178C14.7438 3.98691 14.6687 4.00989 14.5994 4.0372C14.5304 4.06528 14.4668 4.09767 14.4087 4.13402C14.3507 4.17004 14.2987 4.20954 14.2523 4.24997C14.1843 4.30922 14.1268 4.37156 14.0762 4.43853C14.0258 4.50591 13.9835 4.57815 13.9467 4.65742C13.9101 4.73693 13.8795 4.82326 13.8524 4.91881C13.8255 5.01379 13.8019 5.11822 13.7805 5.23357C13.7595 5.35002 13.744 5.45509 13.7354 5.55213C13.7264 5.64852 13.7251 5.73628 13.7317 5.81734C13.7388 5.89783 13.7538 5.97153 13.779 6.04019C13.8046 6.10917 13.8393 6.17246 13.8858 6.23304C13.9178 6.27439 13.9558 6.3147 14.0009 6.35197C14.0459 6.38926 14.0985 6.42276 14.1585 6.45112C14.2185 6.47945 14.2866 6.50241 14.3633 6.51785C14.4395 6.53359 14.5243 6.54186 14.6185 6.54009C14.7124 6.5391 14.8005 6.52837 14.8829 6.51113C14.9648 6.49261 15.0407 6.46834 15.1111 6.43844C15.181 6.40874 15.2452 6.37358 15.3031 6.33597C15.3611 6.29767 15.4131 6.25706 15.4593 6.21517C15.526 6.15463 15.5828 6.09062 15.6315 6.02212C15.68 5.95394 15.7207 5.88103 15.7556 5.80134C15.7904 5.72163 15.8192 5.63502 15.8443 5.54013C15.8689 5.44523 15.89 5.34147 15.909 5.22727C15.9283 5.11413 15.9425 5.01194 15.9497 4.91802C15.9571 4.82453 15.9577 4.73946 15.95 4.66146C15.9425 4.58336 15.9271 4.51231 15.9017 4.44564Z" fill="white"/>
<path id="Fill 26" fill-rule="evenodd" clip-rule="evenodd" d="M10.0338 8.03701C10.1094 7.96954 10.1742 7.89856 10.2317 7.81996C10.2874 7.74389 10.3347 7.66172 10.3765 7.56921C10.4159 7.48045 10.45 7.38272 10.4804 7.27043C10.5047 7.18127 10.5214 7.0961 10.5406 6.99391L10.6225 6.56294L10.9399 4.78798L11.2836 4.79005L11.4568 4.20048L11.0366 4.20183L11.076 3.92169C11.0775 3.9144 11.0836 3.87892 11.0904 3.84014C11.0986 3.79291 11.108 3.7392 11.1099 3.73073C11.1264 3.65812 11.1438 3.59719 11.1634 3.54412C11.1844 3.48522 11.2091 3.43336 11.2394 3.38565C11.2713 3.3358 11.307 3.29451 11.3485 3.25915C11.3713 3.23949 11.3957 3.2216 11.4207 3.20574C11.4469 3.18992 11.4726 3.17731 11.4992 3.16708C11.5011 3.1664 11.5031 3.16579 11.505 3.16529L11.5097 3.16384C11.5454 3.14931 11.5799 3.13895 11.6152 3.13179C11.6552 3.12366 11.6967 3.11949 11.7391 3.11949H11.743C11.7836 3.11949 11.8223 3.12345 11.858 3.131C11.8922 3.13829 11.9244 3.14895 11.9536 3.16272C11.9578 3.16469 11.9617 3.16688 11.9655 3.16912L11.9735 3.17368L12.1657 2.55318L12.1609 2.55172C12.1315 2.54282 12.1011 2.53352 12.0682 2.52688C11.9854 2.50889 11.8951 2.49976 11.7997 2.49976L11.7874 2.4999C11.6908 2.4999 11.5947 2.50931 11.5017 2.52813C11.4171 2.5453 11.3328 2.57101 11.2513 2.60426C11.1762 2.63545 11.1049 2.67252 11.0395 2.71478C10.9776 2.75448 10.9192 2.79864 10.8661 2.84607C10.7922 2.91173 10.7288 2.98138 10.6718 3.05884C10.6179 3.13277 10.5715 3.21315 10.53 3.30467C10.504 3.36293 10.4803 3.4264 10.4575 3.49844C10.4413 3.54628 10.4268 3.59773 10.4119 3.66052C10.3932 3.73594 10.3747 3.84254 10.3583 3.93644L10.3497 3.98606C10.346 4.00727 10.3429 4.02774 10.3396 4.04857L10.3103 4.20129L10.035 4.20225L9.8626 4.7892L10.2137 4.78866C10.1897 4.92055 9.78756 7.12244 9.785 7.1347C9.76837 7.20819 9.75055 7.27058 9.73056 7.32509C9.70924 7.38494 9.68391 7.43782 9.65302 7.48681C9.65138 7.48932 9.64956 7.49178 9.6478 7.49441L9.64446 7.49912C9.58098 7.60332 9.49036 7.68303 9.38477 7.73149C9.47569 7.91492 9.57692 8.09225 9.68757 8.26298C9.74669 8.23592 9.80364 8.20535 9.857 8.17092C9.91904 8.13111 9.97855 8.08613 10.0338 8.03701Z" fill="white"/>
<path id="Fill 28" fill-rule="evenodd" clip-rule="evenodd" d="M12.894 5.44787C12.8856 5.47862 12.8764 5.50814 12.8667 5.53732C12.8809 5.49861 12.894 5.4589 12.9053 5.41688C12.9215 5.35752 12.9357 5.29473 12.9494 5.22943C12.9562 5.19641 12.9626 5.16411 12.9681 5.13306C12.9616 5.16614 12.9544 5.19989 12.9467 5.23462C12.9302 5.3087 12.9129 5.38018 12.894 5.44787Z" fill="#E6003D"/>
<path id="Fill 30" fill-rule="evenodd" clip-rule="evenodd" d="M12.9871 4.8323C12.9862 4.89068 12.9802 4.95385 12.9707 5.02118C12.9659 5.05749 12.9599 5.09455 12.9533 5.13297C12.9485 5.16402 12.943 5.19632 12.9372 5.22932C12.9256 5.29465 12.9134 5.35743 12.8996 5.4168C12.89 5.45882 12.8788 5.4985 12.8667 5.53724C12.8566 5.57264 12.8461 5.60713 12.8343 5.63997C12.8128 5.69982 12.788 5.75506 12.7584 5.80537C12.7289 5.85524 12.6946 5.89947 12.6538 5.9375C12.6315 5.95877 12.608 5.97751 12.5836 5.99375C12.5594 6.01015 12.5339 6.02407 12.5073 6.0354C12.4806 6.04617 12.4526 6.05507 12.4236 6.06096C12.3944 6.06627 12.3637 6.06984 12.332 6.07044C12.2998 6.07088 12.2699 6.06849 12.2424 6.06322C12.2153 6.05806 12.1901 6.05034 12.167 6.03981C12.1442 6.02917 12.1231 6.01605 12.1049 6.00011C12.0862 5.98437 12.0695 5.96588 12.0547 5.94551C12.0294 5.90798 12.0128 5.86381 12.0023 5.81436C11.9923 5.76438 11.9888 5.70912 11.9908 5.64915C11.9923 5.58894 11.9987 5.524 12.0084 5.45558C12.0184 5.38738 12.0316 5.31521 12.0462 5.24073C12.0604 5.16531 12.0752 5.09357 12.0915 5.02607C12.1081 4.9582 12.1264 4.89394 12.1484 4.83536C12.1696 4.77587 12.195 4.72204 12.2249 4.6731C12.2549 4.62438 12.2899 4.58095 12.3309 4.54362C12.3536 4.52332 12.3765 4.50511 12.4002 4.48955C12.4238 4.47404 12.4482 4.46094 12.474 4.45017C12.4997 4.43968 12.5269 4.43192 12.555 4.42676C12.5838 4.42135 12.6139 4.4191 12.6455 4.41886C12.6771 4.41916 12.7066 4.42161 12.7337 4.42656C12.761 4.43202 12.7861 4.43999 12.8091 4.45057C12.8321 4.46075 12.8534 4.47385 12.8719 4.48913C12.8905 4.50487 12.9074 4.52245 12.9219 4.54302C12.947 4.58029 12.9642 4.62327 12.9741 4.67167C12.9848 4.71975 12.9886 4.7738 12.9871 4.8323ZM13.5489 4.44568C13.5237 4.37891 13.4891 4.31753 13.4437 4.25871C13.4132 4.21798 13.3764 4.17888 13.3324 4.14252C13.2885 4.10623 13.2373 4.07242 13.1786 4.04413C13.1197 4.01602 13.0534 3.99229 12.9787 3.97579C12.9045 3.95903 12.8218 3.94941 12.7305 3.94911C12.6385 3.94782 12.5522 3.95609 12.4716 3.97158C12.391 3.98696 12.3159 4.00994 12.2467 4.03733C12.1773 4.06532 12.1138 4.09772 12.0559 4.13406C11.998 4.17031 11.9456 4.20977 11.8993 4.25002C11.8316 4.30926 11.7737 4.3715 11.7234 4.43858C11.6733 4.50571 11.6309 4.5782 11.5941 4.65734C11.5577 4.73697 11.527 4.82316 11.4999 4.91893C11.4729 5.01384 11.4496 5.11826 11.4282 5.23373C11.407 5.35019 11.3914 5.45513 11.3827 5.55223C11.3739 5.64856 11.3725 5.73632 11.3792 5.81684C11.386 5.89788 11.4013 5.97157 11.4263 6.04023C11.4517 6.10904 11.4868 6.17257 11.5333 6.23308C11.5649 6.27456 11.603 6.315 11.6482 6.35223C11.6935 6.3893 11.7455 6.42281 11.8058 6.45088C11.8656 6.4796 11.934 6.50258 12.0103 6.51801C12.0866 6.53363 12.1716 6.54178 12.2656 6.54031C12.3594 6.53914 12.4478 6.5283 12.5299 6.51117C12.6119 6.49278 12.6879 6.46845 12.758 6.43844C12.8281 6.40878 12.8922 6.37363 12.9502 6.33613C13.0083 6.29772 13.0601 6.25729 13.1064 6.21521C13.173 6.1548 13.2297 6.09066 13.2787 6.0223C13.3272 5.95431 13.3681 5.88122 13.4025 5.80116C13.4376 5.72167 13.4665 5.63506 13.4911 5.54018C13.516 5.44539 13.5371 5.34151 13.5559 5.22749C13.5754 5.11418 13.5895 5.01199 13.5968 4.91821C13.6041 4.82457 13.6049 4.73951 13.5971 4.66165C13.5897 4.58347 13.5738 4.51257 13.5489 4.44568Z" fill="white"/>
<path id="Fill 32" fill-rule="evenodd" clip-rule="evenodd" d="M17.6741 4.82969C17.6731 4.88894 17.667 4.95247 17.6576 5.02044C17.6527 5.05673 17.6467 5.09424 17.6401 5.13239C17.6353 5.16437 17.6297 5.19695 17.6238 5.2306C17.6121 5.2965 17.5998 5.35997 17.5857 5.42025C17.5759 5.46315 17.5646 5.50362 17.5522 5.543C17.5422 5.57836 17.5316 5.61279 17.5198 5.64537C17.498 5.70584 17.4731 5.76183 17.4433 5.81258C17.4135 5.86255 17.3789 5.90746 17.3376 5.94612C17.3151 5.96737 17.2912 5.98631 17.2668 6.00271C17.2421 6.01951 17.2163 6.03336 17.1896 6.04469C17.1625 6.05566 17.1344 6.06471 17.105 6.07025C17.0759 6.07634 17.0447 6.07942 17.0126 6.08017C16.9801 6.08051 16.9498 6.07819 16.9221 6.07292C16.8944 6.06767 16.8692 6.05994 16.8457 6.04903C16.8228 6.03855 16.802 6.02539 16.7834 6.00921C16.7642 5.99333 16.7475 5.97478 16.7323 5.95389C16.7071 5.91604 16.6902 5.87144 16.6798 5.82155C16.6696 5.77114 16.6661 5.71542 16.6679 5.65469C16.6696 5.59397 16.6759 5.52831 16.686 5.45945C16.6958 5.39028 16.7092 5.31721 16.7238 5.24211C16.7383 5.16596 16.7533 5.09347 16.7696 5.02538C16.7865 4.95705 16.8049 4.89212 16.8268 4.83281C16.8488 4.77296 16.8742 4.71833 16.9045 4.66884C16.9349 4.6197 16.9699 4.57571 17.0116 4.53832C17.0341 4.51751 17.0573 4.49906 17.0811 4.48338C17.1053 4.46776 17.1302 4.45446 17.1561 4.44382C17.182 4.43341 17.2092 4.4253 17.2378 4.42009C17.2669 4.41466 17.297 4.41226 17.3291 4.41214C17.3611 4.41238 17.3907 4.41478 17.4182 4.42009C17.4458 4.4253 17.4713 4.43327 17.4946 4.44406C17.5176 4.4543 17.5391 4.46764 17.5578 4.48308C17.5766 4.4989 17.5936 4.51677 17.6082 4.53753C17.6339 4.5751 17.6509 4.61853 17.6611 4.66747C17.6718 4.71593 17.6755 4.77063 17.6741 4.82969ZM18.2293 2.93926C18.1964 2.97393 18.1663 3.01146 18.139 3.05241C18.1243 3.07475 18.1105 3.09828 18.0972 3.12228C18.0909 3.13307 18.0856 3.14283 18.081 3.15177C18.0797 3.15396 18.0786 3.15629 18.0774 3.15851C18.0701 3.17277 18.0651 3.18362 18.0617 3.19079C18.0495 3.21652 18.0376 3.24268 18.0264 3.26987C17.994 3.34902 17.9657 3.43565 17.9396 3.52699C17.9144 3.61826 17.8906 3.71523 17.8674 3.81748C17.844 3.91814 17.8226 4.01608 17.8056 4.10908C17.7991 4.1462 17.7939 4.18223 17.7889 4.21783C17.7616 4.17647 17.7319 4.14003 17.6989 4.10908C17.6617 4.07503 17.6208 4.04641 17.5762 4.02405C17.5313 4.00115 17.4822 3.98417 17.4293 3.97203C17.3766 3.95974 17.319 3.95219 17.2578 3.94851C17.1983 3.94509 17.1394 3.94712 17.0814 3.95396C17.0234 3.96151 16.9664 3.97326 16.912 3.99031C16.8573 4.00709 16.8053 4.02816 16.7561 4.05347C16.7074 4.07937 16.6614 4.10877 16.6204 4.14204C16.5459 4.2011 16.4839 4.27297 16.4321 4.35278C16.38 4.43279 16.3377 4.52119 16.3024 4.61418C16.2668 4.70736 16.2382 4.80482 16.2134 4.90314C16.1888 5.00123 16.1679 5.10066 16.1482 5.19623C16.1282 5.29234 16.108 5.39189 16.0917 5.4915C16.076 5.59164 16.064 5.69143 16.0607 5.78825C16.058 5.88503 16.0634 5.97834 16.0822 6.06372C16.1007 6.14992 16.1329 6.2286 16.1826 6.29597C16.21 6.3329 16.2439 6.36715 16.2826 6.39712C16.3216 6.42732 16.3655 6.45415 16.4141 6.47638C16.462 6.49856 16.5149 6.51597 16.5703 6.52893C16.6257 6.54169 16.6841 6.54915 16.7446 6.55151C16.8106 6.5535 16.8717 6.55106 16.9303 6.54316C16.9884 6.53509 17.0438 6.5211 17.0972 6.50144C17.1507 6.48166 17.2026 6.45523 17.2538 6.42217C17.2824 6.40392 17.3109 6.38313 17.3395 6.36031C17.3492 6.35276 17.3589 6.34473 17.3685 6.3364C17.369 6.33614 17.3692 6.33592 17.3695 6.3356C17.3787 6.32783 17.3877 6.3198 17.3967 6.31135C17.4003 6.30817 17.4037 6.30515 17.4076 6.30173L17.4095 6.29911C17.4278 6.2812 17.4457 6.26295 17.463 6.24297C17.5022 6.19759 17.5348 6.15018 17.5618 6.10226C17.5838 6.17897 17.6167 6.24961 17.6642 6.31006C17.6937 6.34711 17.7296 6.38132 17.7706 6.41102C17.7975 6.43068 17.8272 6.44789 17.8584 6.46395C17.8664 6.46872 17.8739 6.47411 17.8822 6.47848C17.9265 6.50156 17.975 6.51915 18.0277 6.53164C18.081 6.54444 18.1391 6.55191 18.2022 6.5543C18.2199 6.55481 18.2371 6.55406 18.2544 6.5537L18.4222 6.01287C18.4184 6.01209 18.4142 6.01197 18.4105 6.01118C18.3875 6.00615 18.3663 5.99927 18.3469 5.98967C18.3278 5.98017 18.3103 5.9686 18.295 5.95469C18.2793 5.94103 18.2657 5.92511 18.2534 5.90734C18.2327 5.87486 18.2195 5.83683 18.2117 5.79467C18.2059 5.76221 18.2045 5.72667 18.205 5.6895C18.2047 5.68753 18.2043 5.6855 18.2037 5.68336C18.2037 5.68336 18.2051 5.65519 18.2059 5.64108C18.2064 5.63074 18.2079 5.61663 18.2098 5.60068C18.2133 5.56494 18.2178 5.52837 18.2241 5.49001C18.2257 5.48158 18.2276 5.47243 18.2291 5.46361C18.2319 5.44572 18.2338 5.43367 18.2338 5.43367C18.2338 5.43367 18.3169 4.95691 18.3173 4.95691C18.3786 4.58943 18.4551 4.13661 18.4642 4.08923C18.4792 4.00997 18.4946 3.9345 18.5114 3.86342C18.5289 3.79237 18.5481 3.72479 18.5709 3.66309C18.5935 3.60087 18.62 3.54394 18.6512 3.4923C18.6828 3.44117 18.7191 3.39534 18.7625 3.35642C18.7858 3.33481 18.8101 3.31551 18.8347 3.29915C18.8598 3.28281 18.8857 3.26901 18.9128 3.25776C18.9396 3.24685 18.9679 3.2384 18.9977 3.23299H18.9979C18.9132 3.03636 18.817 2.84588 18.7102 2.66235C18.4913 2.70216 18.3343 2.82236 18.2293 2.93926Z" fill="white"/>
<path id="Fill 34" fill-rule="evenodd" clip-rule="evenodd" d="M12.2051 7.88284V7.50276C12.2051 7.41726 12.1512 7.38816 12.102 7.38816C12.0529 7.38816 11.9976 7.41726 11.9976 7.50276V7.88284H11.8418V7.25442H11.9941V7.31231C12.035 7.26882 12.0924 7.24707 12.1499 7.24707C12.2124 7.24707 12.2626 7.2676 12.2975 7.30257C12.3478 7.35334 12.361 7.41235 12.361 7.48109V7.88284H12.2051Z" fill="white"/>
<path id="Fill 36" fill-rule="evenodd" clip-rule="evenodd" d="M13.0206 7.44249C13.0036 7.40512 12.9684 7.37743 12.9149 7.37743C12.8613 7.37743 12.826 7.40512 12.809 7.44249C12.7993 7.46553 12.7957 7.48242 12.7943 7.51001H13.0354C13.0339 7.48242 13.0304 7.46553 13.0206 7.44249ZM12.7943 7.61751C12.7943 7.69821 12.8443 7.75737 12.9332 7.75737C13.0024 7.75737 13.0365 7.73819 13.0766 7.69821L13.1726 7.79112C13.1082 7.85503 13.0462 7.89001 12.9318 7.89001C12.7822 7.89001 12.6387 7.82251 12.6387 7.56794C12.6387 7.36304 12.7507 7.24707 12.9149 7.24707C13.0912 7.24707 13.191 7.375 13.191 7.5475V7.61751H12.7943Z" fill="white"/>
<path id="Fill 38" fill-rule="evenodd" clip-rule="evenodd" d="M13.663 7.88287C13.536 7.88287 13.482 7.79245 13.482 7.70312V7.39187H13.416V7.27253H13.482V7.08667H13.6379V7.27253H13.7483V7.39187H13.6379V7.69352C13.6379 7.72973 13.6547 7.75011 13.6919 7.75011H13.7483V7.88287H13.663Z" fill="white"/>
<path id="Fill 40" fill-rule="evenodd" clip-rule="evenodd" d="M14.7058 7.88307H14.5775L14.4469 7.4886L14.3162 7.88307H14.1878L13.9956 7.25464H14.1613L14.2621 7.64303L14.3892 7.25464H14.5032L14.6314 7.64303L14.7321 7.25464H14.8966L14.7058 7.88307Z" fill="white"/>
<path id="Fill 42" fill-rule="evenodd" clip-rule="evenodd" d="M15.4596 7.41603C15.4413 7.39798 15.417 7.38816 15.3853 7.38816C15.3538 7.38816 15.3306 7.39798 15.3125 7.41603C15.2795 7.44869 15.2759 7.50278 15.2759 7.56797C15.2759 7.63309 15.2795 7.68865 15.3125 7.72129C15.3306 7.7393 15.3538 7.74898 15.3853 7.74898C15.417 7.74898 15.4413 7.7393 15.4596 7.72129C15.4924 7.68865 15.496 7.63309 15.496 7.56797C15.496 7.50278 15.4924 7.44869 15.4596 7.41603ZM15.5824 7.81289C15.5434 7.85388 15.4789 7.89003 15.3853 7.89003C15.2916 7.89003 15.2284 7.85388 15.1895 7.81289C15.1323 7.75363 15.1177 7.68253 15.1177 7.56797C15.1177 7.45463 15.1323 7.38339 15.1895 7.32433C15.2284 7.28341 15.2916 7.24707 15.3853 7.24707C15.4789 7.24707 15.5434 7.28341 15.5824 7.32433C15.6395 7.38339 15.6542 7.45463 15.6542 7.56797C15.6542 7.68253 15.6395 7.75363 15.5824 7.81289Z" fill="white"/>
<path id="Fill 44" fill-rule="evenodd" clip-rule="evenodd" d="M16.2514 7.42565C16.2273 7.40158 16.2069 7.38816 16.1686 7.38816C16.1206 7.38816 16.0679 7.4244 16.0679 7.50405V7.88284H15.9121V7.25442H16.0643V7.31469C16.0943 7.2785 16.1542 7.24707 16.2214 7.24707C16.2826 7.24707 16.3258 7.26281 16.3689 7.30617L16.2514 7.42565Z" fill="white"/>
<path id="Fill 46" fill-rule="evenodd" clip-rule="evenodd" d="M16.9857 7.88293L16.8322 7.62116L16.7662 7.69596V7.88293H16.6104V7.02417H16.7662V7.51151L16.9736 7.25451H17.1621L16.9389 7.50777L17.1788 7.88293H16.9857Z" fill="white"/>
<path id="Fill 48" fill-rule="evenodd" clip-rule="evenodd" d="M19.4984 2.87376C19.4984 2.98794 19.405 3.08049 19.29 3.08049C19.1749 3.08049 19.0815 2.98794 19.0815 2.87376C19.0815 2.75748 19.1749 2.6665 19.2932 2.6665C19.405 2.6665 19.4984 2.7606 19.4984 2.87376ZM19.106 2.87376C19.106 2.9742 19.1881 3.05624 19.29 3.05624C19.3919 3.05624 19.4741 2.97472 19.4741 2.87376C19.4741 2.77382 19.3919 2.69069 19.2932 2.69069C19.1881 2.69069 19.106 2.77119 19.106 2.87376ZM19.307 2.76115C19.3557 2.76115 19.3839 2.78272 19.3839 2.82114C19.3839 2.84844 19.3701 2.86641 19.341 2.87634V2.87851C19.3537 2.88215 19.3622 2.88791 19.3684 2.89682C19.3754 2.90634 19.376 2.90946 19.3791 2.94635C19.3812 2.97156 19.3827 2.97685 19.3929 2.98573H19.3616C19.3574 2.97941 19.3557 2.97261 19.3546 2.95315C19.352 2.89682 19.3441 2.88791 19.2948 2.88791H19.2412C19.2354 2.88791 19.2332 2.88791 19.2274 2.88583C19.2295 2.89159 19.2295 2.89316 19.2295 2.89946V2.98573H19.203V2.76115H19.307ZM19.2412 2.78415C19.2354 2.78415 19.2332 2.78415 19.2274 2.78167C19.2295 2.78839 19.2295 2.79023 19.2295 2.79806V2.86528C19.2295 2.87319 19.2295 2.87504 19.2274 2.88167C19.2332 2.87929 19.2354 2.87929 19.2412 2.87929H19.2922C19.3383 2.87929 19.3574 2.86528 19.3574 2.8307C19.3574 2.79862 19.3394 2.78415 19.2995 2.78415H19.2412Z" fill="#E6003D"/>
<path id="Fill 50" fill-rule="evenodd" clip-rule="evenodd" d="M2.9166 12.4949L6.5194 9.34136H10.1199L6.6588 12.718C7.70479 14.8425 9.43368 16.5779 10.359 16.5779C10.6406 16.5779 11.3636 16.5742 11.6303 16.5742L11.617 19.0869C11.0738 19.188 10.0479 19.1989 9.62557 19.1989C7.6744 19.1989 6.37712 17.3717 4.68756 14.2759L2.87725 15.7531L2.9166 19.0869H0V5.63159H2.9166V12.4949Z" fill="#071538"/>
<path id="Fill 52" fill-rule="evenodd" clip-rule="evenodd" d="M68.6673 5.91276H68.2578V6.6822H68.0472V5.91276H67.6377V5.70386H68.6673V5.91276Z" fill="#071538"/>
<path id="Fill 54" fill-rule="evenodd" clip-rule="evenodd" d="M69.4401 6.30558L69.7223 5.70386H69.99V6.6822H69.7794V6.07607L69.4869 6.68367H69.3918L69.0993 6.07607V6.6822H68.8887V5.70386H69.1563L69.4401 6.30558Z" fill="#071538"/>
</g>
</g>
</svg>
